<svg xmlns="http://www.w3.org/2000/svg" xmlns:xlink="http://www.w3.org/1999/xlink" viewBox="0 0 34.77 38.49"><defs><style>.cls-1{fill:#6c8080;}.cls-2{fill:none;}.cls-3{isolation:isolate;}.cls-4{clip-path:url(#clip-path);}.cls-5{fill:#fff;}.cls-6{clip-path:url(#clip-path-2);}.cls-7{opacity:0.2;mix-blend-mode:screen;fill:url(#linear-gradient);}</style><clipPath id="clip-path"><polygon class="cls-1" points="2402.4 51.74 480.98 51.74 479.38 -1029.26 2399.22 -1029.26 2402.4 51.74"/></clipPath><clipPath id="clip-path-2"><rect class="cls-2" x="797.38" y="2425.75" width="1284.5" height="499" transform="translate(2879.26 5350.49) rotate(180)"/></clipPath><linearGradient id="linear-gradient" x1="-2279.2" y1="1155.31" x2="789.22" y2="1155.31" gradientTransform="translate(2867.57 1063.25) rotate(45)" gradientUnits="userSpaceOnUse"><stop offset="0" stop-color="#89c658"/><stop offset="1" stop-color="#72ab39"/></linearGradient></defs><g class="cls-3"><g id="Layer_1" data-name="Layer 1"><polygon class="cls-1" points="2402.4 51.74 480.98 51.74 479.38 -1029.26 2399.22 -1029.26 2402.4 51.74"/><g class="cls-4"><image width="1740" height="682" transform="translate(-123.73 -1032.46) scale(1.59)" xlink:href="D:%5C%D8%AC%D9%85%D8%B9%D9%8A%D8%A7%D8%AA%20%D9%88%D9%85%D9%86%D8%B8%D9%85%D8%A7%D8%AA%5C%D8%B3%D9%86%D8%A7%D8%A8%D9%84%20%D8%A7%D9%84%D8%A3%D9%85%D9%84%5C%D9%85%D9%88%D9%82%D8%B9%20%D8%A7%D9%84%D9%88%D9%8A%D8%A8%20%D9%84%D8%B3%D9%86%D8%A7%D8%A8%D9%84%20%D8%A7%D9%84%D8%A3%D9%85%D9%84%5C%D8%B5%D9%88%D8%B1%5C5e0dc7caf3718%20copy-.png"/></g><path class="cls-5" d="M33.64,9.17a13.86,13.86,0,0,1-3.85,1.05,6.47,6.47,0,0,0,2.94-3.69,12.63,12.63,0,0,1-4.21,1.6,6.82,6.82,0,0,0-4.86-2.08A6.65,6.65,0,0,0,17,12.72a8.85,8.85,0,0,0,.15,1.49A18.81,18.81,0,0,1,3.41,7.27a6.74,6.74,0,0,0,2.05,8.89,6.61,6.61,0,0,1-3-.83v.08a6.67,6.67,0,0,0,5.35,6.53,6.13,6.13,0,0,1-1.73.26,8,8,0,0,1-1.26-.12A6.67,6.67,0,0,0,11,26.7a13.19,13.19,0,0,1-8.27,2.84,14.77,14.77,0,0,1-1.61-.07,19.17,19.17,0,0,0,10.24,3c12.28,0,19-10.15,19-18.93v-.89A14.48,14.48,0,0,0,33.64,9.17Z"/><g class="cls-6"><rect class="cls-7" x="416.06" y="245.59" width="2215.6" height="2215.6" rx="78.34" transform="translate(3558.38 1232.86) rotate(135)"/></g></g></g></svg>