<svg xmlns="http://www.w3.org/2000/svg" xmlns:xlink="http://www.w3.org/1999/xlink" viewBox="0 0 34.77 38.49"><defs><style>.cls-1{fill:#6c8080;}.cls-2{fill:none;}.cls-3{isolation:isolate;}.cls-4{clip-path:url(#clip-path);}.cls-5{fill:#fff;}.cls-6{clip-path:url(#clip-path-2);}.cls-7{opacity:0.2;mix-blend-mode:screen;fill:url(#linear-gradient);}</style><clipPath id="clip-path"><polygon class="cls-1" points="2402.4 51.74 480.98 51.74 479.38 -1029.26 2399.22 -1029.26 2402.4 51.74"/></clipPath><clipPath id="clip-path-2"><rect class="cls-2" x="797.38" y="2425.75" width="1284.5" height="499" transform="translate(2879.26 5350.49) rotate(180)"/></clipPath><linearGradient id="linear-gradient" x1="-2279.2" y1="1155.31" x2="789.22" y2="1155.31" gradientTransform="translate(2867.57 1063.25) rotate(45)" gradientUnits="userSpaceOnUse"><stop offset="0" stop-color="#89c658"/><stop offset="1" stop-color="#72ab39"/></linearGradient></defs><g class="cls-3"><g id="Layer_1" data-name="Layer 1"><polygon class="cls-1" points="2402.4 51.74 480.98 51.74 479.38 -1029.26 2399.22 -1029.26 2402.4 51.74"/><g class="cls-4"><image width="1740" height="682" transform="translate(-123.73 -1032.46) scale(1.59)" xlink:href="D:%5C%D8%AC%D9%85%D8%B9%D9%8A%D8%A7%D8%AA%20%D9%88%D9%85%D9%86%D8%B8%D9%85%D8%A7%D8%AA%5C%D8%B3%D9%86%D8%A7%D8%A8%D9%84%20%D8%A7%D9%84%D8%A3%D9%85%D9%84%5C%D9%85%D9%88%D9%82%D8%B9%20%D8%A7%D9%84%D9%88%D9%8A%D8%A8%20%D9%84%D8%B3%D9%86%D8%A7%D8%A8%D9%84%20%D8%A7%D9%84%D8%A3%D9%85%D9%84%5C%D8%B5%D9%88%D8%B1%5C5e0dc7caf3718%20copy-.png"/></g><path class="cls-5" d="M32.85,11.67a4,4,0,0,0-3.48-3.14,108.85,108.85,0,0,0-12-.44,108.85,108.85,0,0,0-12,.44,4,4,0,0,0-3.49,3.14,35.23,35.23,0,0,0-.54,7.54,35.65,35.65,0,0,0,.54,7.6A4,4,0,0,0,5.41,30a108.58,108.58,0,0,0,12,.44,108.94,108.94,0,0,0,12-.44,4.13,4.13,0,0,0,3.48-3.15,37.71,37.71,0,0,0,.53-7.6A35.88,35.88,0,0,0,32.85,11.67ZM14,25.13V14.42l9.28,5.36Z"/><g class="cls-6"><rect class="cls-7" x="416.06" y="245.59" width="2215.6" height="2215.6" rx="78.34" transform="translate(3558.38 1232.86) rotate(135)"/></g></g></g></svg>