<svg xmlns="http://www.w3.org/2000/svg" xmlns:xlink="http://www.w3.org/1999/xlink" viewBox="0 0 186 51"><defs><style>.cls-1{fill:none;}.cls-2{isolation:isolate;}.cls-3{clip-path:url(#clip-path);}.cls-4{opacity:0.2;mix-blend-mode:screen;fill:url(#linear-gradient);}.cls-5{clip-path:url(#clip-path-2);}.cls-6{fill:#2a3c35;opacity:0.5;}.cls-7{fill:#374a43;}.cls-8{clip-path:url(#clip-path-3);}.cls-9{fill:#72a739;}</style><clipPath id="clip-path"><rect class="cls-1" x="-265" y="2439" width="1284.5" height="499" transform="translate(754.5 5377) rotate(180)"/></clipPath><linearGradient id="linear-gradient" x1="-3341.59" y1="604.56" x2="-273.16" y2="604.56" gradientTransform="translate(2166.97 2217.16) rotate(45)" gradientUnits="userSpaceOnUse"><stop offset="0" stop-color="#85c258"/><stop offset="1" stop-color="#72a739"/></linearGradient><clipPath id="clip-path-2"><rect class="cls-1" x="269" y="-120" width="851" height="558" rx="50"/></clipPath><clipPath id="clip-path-3"><rect class="cls-1" x="-1.24" y="10.2" width="187.24" height="35.31"/></clipPath></defs><g class="cls-2"><g id="Layer_1" data-name="Layer 1"><g class="cls-3"><rect class="cls-4" x="-646.33" y="258.85" width="2215.6" height="2215.6" rx="78.34" transform="translate(1754.15 2006.7) rotate(135)"/></g><g class="cls-5"><image width="1440" height="808" transform="translate(134.98 -125) scale(0.7)" xlink:href="D:%5C%D8%AC%D9%85%D8%B9%D9%8A%D8%A7%D8%AA%20%D9%88%D9%85%D9%86%D8%B8%D9%85%D8%A7%D8%AA%5C%D8%B3%D9%86%D8%A7%D8%A8%D9%84%20%D8%A7%D9%84%D8%A3%D9%85%D9%84%5C118983081_1064535087297170_3984961225350453897_o.jpg"/><image width="1920" height="1080" transform="translate(158 -127.38) scale(0.54)" xlink:href="D:%5C%D8%AC%D9%85%D8%B9%D9%8A%D8%A7%D8%AA%20%D9%88%D9%85%D9%86%D8%B8%D9%85%D8%A7%D8%AA%5C%D8%B3%D9%86%D8%A7%D8%A8%D9%84%20%D8%A7%D9%84%D8%A3%D9%85%D9%84%5C%D8%B5%D9%88%D8%B1%20%D8%A7%D8%B9%D9%85%D8%A7%D9%84%202019-2020%5C%D8%A7%D9%84%D8%AC%D8%A7%D9%86%D8%A8%20%D8%A7%D9%84%D8%AE%D8%AF%D9%85%D9%8A%5C%D8%AA%D8%AC%D9%87%D9%8A%D8%B2%20%D8%AE%D9%8A%D8%A7%D9%85%5CMVI_3327.MOV_snapshot_00.00.792.jpg"/><rect class="cls-6" x="90.57" y="-129.22" width="1057.97" height="565.71"/></g><rect class="cls-7" x="1.67" y="10.2" width="184.33" height="35.31"/><path class="cls-7" d="M51.64,31.87h6.18V39h-6.9A10.34,10.34,0,0,1,47,38.11a14.74,14.74,0,0,1-6.12,9.18,17.91,17.91,0,0,1-10.29,2.94q-8.43,0-13.07-5.53A15.13,15.13,0,0,1,14,34.64a15.35,15.35,0,0,1,2.14-8.13l7.37-1.64A15.91,15.91,0,0,0,21,33.63a9.32,9.32,0,0,0,2.59,6.92,9.47,9.47,0,0,0,7,2.56,9.64,9.64,0,0,0,6.9-2.41A8.65,8.65,0,0,0,40,34.11V5L47.47,1v26.6a4.56,4.56,0,0,0,1,3.27A4.35,4.35,0,0,0,51.64,31.87Z"/><path class="cls-7" d="M92.06,31.87h5.29V39H91.28a10.91,10.91,0,0,1-7-2.18,11.15,11.15,0,0,1-8.44,3.36,10.89,10.89,0,0,1-8.44-3.36A11.33,11.33,0,0,1,60.31,39H54.25V31.87H59.6a4.35,4.35,0,0,0,3.21-1,4.61,4.61,0,0,0,.95-3.27V25.92q0-6.89,3.63-10.71a11,11,0,0,1,8.44-3.35,10.91,10.91,0,0,1,9.27,4.35,16,16,0,0,1,2.73,9.71v1.71a4.47,4.47,0,0,0,1,3.27A4.47,4.47,0,0,0,92.06,31.87ZM75.83,33.05c3,0,4.52-2.44,4.52-7.3q0-7-4.52-7t-4.58,7C71.25,30.61,72.78,33.05,75.83,33.05Z"/><path class="cls-7" d="M123,31.87h16.35l.12,7.12H122.25a11.7,11.7,0,0,1-5.71-1.47,12.1,12.1,0,0,1-5.7,1.47H93.78V31.87H110a38.73,38.73,0,0,1-4.46-3.47,35.12,35.12,0,0,1-3.09-3.3l-1.07-1.23V20.51a19.65,19.65,0,0,1,6.74-6.3,16.31,16.31,0,0,1,16.92,0,20.74,20.74,0,0,1,6.89,6.39v3.24A40.8,40.8,0,0,1,123,31.87ZM116.49,29a26.55,26.55,0,0,0,6.59-7c-2.37-2.2-4.61-3.29-6.71-3.29s-4.13,1.09-6.3,3.29A21.87,21.87,0,0,0,116.49,29Z"/><path class="cls-7" d="M135.86,39V31.87h3.75a5.29,5.29,0,0,0,3.89-1.18c.77-.78,1.16-2.12,1.16-4V5L152.09,1V26.75a12.12,12.12,0,0,1-3.51,9.12A11.75,11.75,0,0,1,140,39Z"/><path class="cls-7" d="M162.79,39V5L170.28,1V39Z"/><g class="cls-8"><path class="cls-9" d="M51.64,31.87h6.18V39h-6.9A10.34,10.34,0,0,1,47,38.11a14.74,14.74,0,0,1-6.12,9.18,17.91,17.91,0,0,1-10.29,2.94q-8.43,0-13.07-5.53A15.13,15.13,0,0,1,14,34.64a15.35,15.35,0,0,1,2.14-8.13l7.37-1.64A15.91,15.91,0,0,0,21,33.63a9.32,9.32,0,0,0,2.59,6.92,9.47,9.47,0,0,0,7,2.56,9.64,9.64,0,0,0,6.9-2.41A8.65,8.65,0,0,0,40,34.11V5L47.47,1v26.6a4.56,4.56,0,0,0,1,3.27A4.35,4.35,0,0,0,51.64,31.87Z"/><path class="cls-9" d="M92.06,31.87h5.29V39H91.28a10.91,10.91,0,0,1-7-2.18,11.15,11.15,0,0,1-8.44,3.36,10.89,10.89,0,0,1-8.44-3.36A11.33,11.33,0,0,1,60.31,39H54.25V31.87H59.6a4.35,4.35,0,0,0,3.21-1,4.61,4.61,0,0,0,.95-3.27V25.92q0-6.89,3.63-10.71a11,11,0,0,1,8.44-3.35,10.91,10.91,0,0,1,9.27,4.35,16,16,0,0,1,2.73,9.71v1.71a4.47,4.47,0,0,0,1,3.27A4.47,4.47,0,0,0,92.06,31.87ZM75.83,33.05c3,0,4.52-2.44,4.52-7.3q0-7-4.52-7t-4.58,7C71.25,30.61,72.78,33.05,75.83,33.05Z"/><path class="cls-9" d="M123,31.87h16.35l.12,7.12H122.25a11.7,11.7,0,0,1-5.71-1.47,12.1,12.1,0,0,1-5.7,1.47H93.78V31.87H110a38.73,38.73,0,0,1-4.46-3.47,35.12,35.12,0,0,1-3.09-3.3l-1.07-1.23V20.51a19.65,19.65,0,0,1,6.74-6.3,16.31,16.31,0,0,1,16.92,0,20.74,20.74,0,0,1,6.89,6.39v3.24A40.8,40.8,0,0,1,123,31.87ZM116.49,29a26.55,26.55,0,0,0,6.59-7c-2.37-2.2-4.61-3.29-6.71-3.29s-4.13,1.09-6.3,3.29A21.87,21.87,0,0,0,116.49,29Z"/><path class="cls-9" d="M135.86,39V31.87h3.75a5.29,5.29,0,0,0,3.89-1.18c.77-.78,1.16-2.12,1.16-4V5L152.09,1V26.75a12.12,12.12,0,0,1-3.51,9.12A11.75,11.75,0,0,1,140,39Z"/><path class="cls-9" d="M162.79,39V5L170.28,1V39Z"/></g></g></g></svg>