<svg id="Layer_1" data-name="Layer 1" xmlns="http://www.w3.org/2000/svg" viewBox="0 0 80 80"><defs><style>.cls-1{fill:#2a3c35;stroke:#2a3c35;stroke-miterlimit:10;stroke-width:2px;}</style></defs><path class="cls-1" d="M40,7A1.37,1.37,0,0,0,38.63,8.4V71.6a1.37,1.37,0,1,0,2.74,0V8.4A1.37,1.37,0,0,0,40,7Z"/><path class="cls-1" d="M40,12.52c-9.85,0-17.86,6.16-17.86,13.74,0,5.23,3.76,9.93,9.81,12.28a1.47,1.47,0,0,0,.5.09A1.37,1.37,0,0,0,33,36c-5-1.93-8.06-5.65-8.06-9.72,0-6.06,6.78-11,15.11-11s15.11,4.93,15.11,11a1.38,1.38,0,0,0,2.75,0C57.86,18.68,49.85,12.52,40,12.52Z"/><path class="cls-1" d="M48.05,41.46a1.38,1.38,0,0,0-1.78.79A1.37,1.37,0,0,0,47.05,44c5,1.93,8.06,5.65,8.06,9.72,0,6.06-6.78,11-15.11,11s-15.11-4.93-15.11-11a1.38,1.38,0,0,0-2.75,0c0,7.58,8,13.74,17.86,13.74s17.86-6.16,17.86-13.74C57.86,48.51,54.1,43.81,48.05,41.46Z"/><path class="cls-1" d="M48.06,41.47c-4-1.62-5.92-2.25-7.94-2.91C38.33,38,36.48,37.35,33,36a1.37,1.37,0,0,0-1,2.56c3.6,1.4,5.49,2,7.31,2.62S43.1,42.43,47,44a1.54,1.54,0,0,0,.51.1,1.38,1.38,0,0,0,.51-2.65Z"/></svg>